#!OML:ASF E:\Steps\Project 1\Capture day 1\Session 2\Subject.ASF
:FULLY-SPECIFIED
:DEGREES
398
root 3.19879 17.9868 17.3545 -152.156 1.25115 177.276
lowerback -23.1458 -2.55868 -2.41142
upperback 1.14419 -2.68858 0.685875
thorax 14.5333 -1.37962 1.23725
lowerneck -2.27512 -1.1109 -1.63034
upperneck 22.6715 -0.0105082 2.0191
head 7.30857 0.677616 1.01824
rclavicle -2.45996e-014 3.97569e-016
rhumerus -46.4651 -20.0107 -68.3821
rradius 44.4726
rwrist -3.48189
rhand -5.37998 -54.3714
rfingers 7.12502
rthumb 20.4283 -83.3168
lclavicle -2.45996e-014 3.97569e-016
lhumerus -32.4584 -4.51805 83.6815
lradius 34.5446
lwrist 2.094
lhand -20.8946 -14.5168
lfingers 7.12502
lthumb 5.47612 15.3924
rfemur -33.8003 12.2311 13.9397
rtibia 15.3383
rfoot -17.9533 -4.46512
rtoes -30.2053
lfemur -28.9512 -2.84578 -26.5922
ltibia 7.16908
lfoot -3.47507 -7.04451
ltoes -3.59095
399
root 3.18847 17.9793 17.3437 -151.969 0.983353 177.352
lowerback -23.6009 -2.5466 -2.24442
upperback 1.05509 -2.69534 0.700688
thorax 14.6822 -1.36266 1.146
lowerneck -2.05124 -1.2931 -1.56551
upperneck 22.4803 -0.282894 2.02663
head 7.21099 0.55006 0.988293
rclavicle -4.67144e-015 1.39149e-015
rhumerus -46.4761 -20.0534 -68.4868
rradius 44.3904
rwrist -3.6031
rhand -5.25659 -54.5588
rfingers 7.12502
rthumb 20.5469 -83.4914
lclavicle -4.67144e-015 1.39149e-015
lhumerus -32.4498 -4.62992 83.5911
lradius 34.4935
lwrist 1.97387
lhand -21.1407 -14.3486
lfingers 7.12502
lthumb 5.23853 15.5666
rfemur -33.7424 11.8418 14.1442
rtibia 15.0853
rfoot -17.758 -3.98759
rtoes -28.4103
lfemur -29.0947 -2.80149 -26.5874
ltibia 7.10364
lfoot -3.35831 -7.09439
ltoes -3.25167
400
root 3.18726 17.9845 17.3448 -152.002 0.922174 177.331
lowerback -23.6561 -2.57403 -2.37036
upperback 1.0268 -2.69721 0.739899
thorax 14.6892 -1.3737 1.26166
lowerneck -1.78937 -1.36721 -1.52651
upperneck 22.1862 -0.39209 1.91808
head 7.07026 0.483078 0.93481
rclavicle 6.31141e-015 -9.54166e-015
rhumerus -46.2749 -20.0274 -68.6322
rradius 44.2761
rwrist -3.52486
rhand -4.91703 -54.862
rfingers 7.12502
rthumb 20.8731 -83.7591
lclavicle 6.31141e-015 -9.54166e-015
lhumerus -32.4122 -4.57366 83.4835
lradius 34.4805
lwrist 1.92635
lhand -21.0521 -14.6132
lfingers 7.12502
lthumb 5.32403 15.2999
rfemur -33.695 11.7933 14.0971
rtibia 15.0427
rfoot -17.7389 -3.94798
rtoes -28.0173
lfemur -29.1413 -2.74321 -26.5883
ltibia 7.22051
lfoot -3.54324 -7.23503
ltoes -3.51171
401
root 3.18749 17.9966 17.3585 -152.164 0.991504 177.351
lowerback -23.3941 -2.49742 -2.44826
upperback 1.02866 -2.58136 0.717419
thorax 14.5375 -1.32838 1.32902
lowerneck -1.67903 -1.38802 -1.7458
upperneck 21.9335 -0.461772 2.08012
head 6.97078 0.434655 1.0164
rclavicle 2.77802e-014 -9.34288e-015
rhumerus -45.9815 -20.0973 -68.8883
rradius 44.0943
rwrist -3.40266
rhand -4.45471 -55.5203
rfingers 7.12502
rthumb 21.3173 -84.3679
lclavicle 2.77802e-014 -9.34288e-015
lhumerus -32.2707 -4.70502 83.3576
lradius 34.4475
lwrist 1.95537
lhand -21.1083 -14.9035
lfingers 7.12502
lthumb 5.26981 15.011
rfemur -33.6784 11.9514 14.0157
rtibia 15.1022
rfoot -17.8609 -4.36805
rtoes -29.9654
lfemur -29.0983 -2.85931 -26.415
ltibia 7.32791
lfoot -3.80911 -7.20464
ltoes -3.04823
402
root 3.17822 17.9775 17.3175 -152.049 0.83085 177.477
lowerback -24.2456 -2.41786 -2.20103
upperback 1.10461 -2.51502 0.703687
thorax 15.1028 -1.27569 1.17222
lowerneck -1.71175 -1.47162 -2.04284
upperneck 21.9492 -0.628179 2.48468
head 6.98719 0.365044 1.18771
rclavicle -1.00883e-014 5.56597e-015
rhumerus -45.7544 -20.0645 -69.1401
rradius 43.8917
rwrist -3.54604
rhand -4.98717 -54.6143
rfingers 7.12502
rthumb 20.8057 -83.5188
lclavicle -1.00883e-014 5.56597e-015
lhumerus -31.9724 -4.82968 83.2884
lradius 34.2017
lwrist 1.78316
lhand -21.5165 -14.8357
lfingers 7.12502
lthumb 4.87562 15.0882
rfemur -33.2771 11.5162 14.417
rtibia 14.6023
rfoot -17.9557 -4.2481
rtoes -31.9288
lfemur -28.805 -2.79957 -26.447
ltibia 6.92442
lfoot -3.86026 -7.49297
ltoes -2.36574
403
root 3.17369 17.9605 17.2841 -151.955 0.87306 177.604
lowerback -24.8568 -2.32148 -2.17555
upperback 1.05665 -2.37058 0.736242
thorax 15.3911 -1.20411 1.23607
lowerneck -1.83757 -1.30191 -1.36453
upperneck 21.7443 -0.393109 2.01614
head 6.9335 0.482842 0.93282
rclavicle 5.61567e-015 7.95139e-016
rhumerus -45.6832 -19.8085 -69.2964
rradius 43.6728
rwrist -3.79329
rhand -5.27678 -53.7849
rfingers 7.12502
rthumb 20.5275 -82.7196
lclavicle 5.61567e-015 7.95139e-016
lhumerus -31.7222 -4.69683 83.2345
lradius 33.7677
lwrist 1.33519
lhand -21.5544 -14.7589
lfingers 7.12502
lthumb 4.83901 15.1659
rfemur -33.0514 11.4322 14.6545
rtibia 14.3021
rfoot -17.8896 -4.09562
rtoes -32.6494
lfemur -28.5423 -2.64343 -26.4433
ltibia 6.53052
lfoot -3.90886 -7.57063
ltoes -2.41687
